<?xml version="1.0" encoding="UTF-8"?>
<svg version="1.1" xmlns="http://www.w3.org/2000/svg" width="1304" height="1044">
<path d="M0 0 C430.32 0 860.64 0 1304 0 C1304 344.52 1304 689.04 1304 1044 C873.68 1044 443.36 1044 0 1044 C0 699.48 0 354.96 0 0 Z " fill="#EDEFF1" transform="translate(0,0)"/>
<path d="M0 0 C4.38785451 3.44625483 7.55914307 7.66950672 10.0078125 12.6796875 C10.0078125 13.3396875 10.0078125 13.9996875 10.0078125 14.6796875 C10.97389938 14.67302567 11.93998627 14.66636383 12.93534851 14.65950012 C22.04304807 14.59866578 31.15070636 14.55370371 40.25856304 14.52425098 C44.94093486 14.50859996 49.62314256 14.48737194 54.30541992 14.45336914 C58.82470626 14.42075564 63.34383481 14.40283025 67.86322975 14.39505577 C69.58680518 14.38951584 71.31037204 14.37869766 73.03388023 14.36249733 C75.4494526 14.34069637 77.86437426 14.33772165 80.2800293 14.33911133 C80.99141052 14.3283255 81.70279175 14.31753967 82.43572998 14.306427 C86.80521814 14.33359883 89.5442522 14.98547829 93.0078125 17.6796875 C95.27902959 21.08651314 95.25250137 22.25765934 95.23486328 26.25268555 C95.23462158 27.40957886 95.23437988 28.56647217 95.23413086 29.75842285 C95.22389893 30.97380737 95.21366699 32.18919189 95.203125 33.44140625 C95.20111084 34.55890259 95.19909668 35.67639893 95.19702148 36.82775879 C95.18654673 41.00761003 95.15862422 45.18740283 95.1328125 49.3671875 C95.0915625 58.7103125 95.0503125 68.0534375 95.0078125 77.6796875 C122.7278125 77.6796875 150.4478125 77.6796875 179.0078125 77.6796875 C178.84961667 59.14588411 178.84961667 59.14588411 178.64746094 40.61254883 C178.63577736 38.28727959 178.62558475 35.96200218 178.6171875 33.63671875 C178.59672363 32.43156616 178.57625977 31.22641357 178.55517578 29.98474121 C178.55445068 28.24976379 178.55445068 28.24976379 178.55371094 26.47973633 C178.54482849 25.47824051 178.53594604 24.47674469 178.52679443 23.44490051 C179.14051133 19.91684605 180.56307461 18.24496845 183.0078125 15.6796875 C185.88525518 14.24096616 188.35347172 14.56031597 191.56884766 14.56616211 C192.24213608 14.56601608 192.9154245 14.56587006 193.6091156 14.5657196 C195.83840131 14.56641723 198.06760385 14.57420261 200.296875 14.58203125 C201.84101313 14.58389596 203.38515184 14.58531961 204.92929077 14.58631897 C208.99651722 14.59013996 213.06370805 14.59996668 217.13092041 14.61102295 C221.2799837 14.62124606 225.42905275 14.62581852 229.578125 14.63085938 C237.72137053 14.64158931 245.86458708 14.65866073 254.0078125 14.6796875 C254.13929688 14.07898438 254.27078125 13.47828125 254.40625 12.859375 C256.41865504 5.56767363 262.6920077 0.96917177 268.6328125 -3.1328125 C275.6861847 -6.6594986 285.38521267 -6.41349489 292.8984375 -4.63671875 C303.10365777 -0.86454377 308.73214474 5.81638361 313.3203125 15.4296875 C315.2758201 24.67390525 314.39036851 33.27655651 310.0078125 41.6796875 C304.82240759 49.37246542 297.89262727 54.16636521 289.0078125 56.6796875 C280.81608491 57.56361294 274.11049668 56.92176214 267.0078125 52.6796875 C266.38261719 52.3290625 265.75742187 51.9784375 265.11328125 51.6171875 C260.05882095 48.44576143 256.71075691 43.96676558 254.0078125 38.6796875 C254.0078125 37.6896875 254.0078125 36.6996875 254.0078125 35.6796875 C236.1878125 35.6796875 218.3678125 35.6796875 200.0078125 35.6796875 C200.0078125 49.5396875 200.0078125 63.3996875 200.0078125 77.6796875 C206.2778125 77.6796875 212.5478125 77.6796875 219.0078125 77.6796875 C228.56641115 81.27512369 233.91692609 85.2191215 238.8828125 93.9921875 C240.0078125 96.6796875 240.0078125 96.6796875 240.0078125 98.6796875 C240.73371582 98.65874023 241.45961914 98.63779297 242.20751953 98.61621094 C245.51580805 98.532751 248.82387461 98.48093211 252.1328125 98.4296875 C253.27492188 98.39617187 254.41703125 98.36265625 255.59375 98.328125 C266.21780023 98.20458953 266.21780023 98.20458953 271.0078125 102.6796875 C272.62322123 105.91050495 272.59744 109.18727848 272.0078125 112.6796875 C270.05124053 116.20756051 267.89926187 118.38253771 264.0078125 119.6796875 C262.23467399 119.76178542 260.45860475 119.78715044 258.68359375 119.77734375 C257.75716064 119.77484619 256.83072754 119.77234863 255.8762207 119.76977539 C254.702771 119.76067139 253.52932129 119.75156738 252.3203125 119.7421875 C248.5871875 119.7215625 244.8540625 119.7009375 241.0078125 119.6796875 C241.0078125 133.2096875 241.0078125 146.7396875 241.0078125 160.6796875 C262.4578125 160.6796875 283.9078125 160.6796875 306.0078125 160.6796875 C306.3378125 159.0296875 306.6678125 157.3796875 307.0078125 155.6796875 C312.19558382 147.90419177 319.09074498 142.48407237 328.0078125 139.6796875 C337.31464472 138.27156158 345.49033301 139.84270793 353.2265625 145.22265625 C359.90407658 150.66682351 365.42418468 158.12165043 366.34375 166.87890625 C366.46644747 177.83578996 364.62817746 185.80881403 357.0078125 193.921875 C348.36709932 201.51625182 339.02756155 202.51577011 327.95214844 201.89306641 C319.93273734 201.01298538 314.68511234 195.88175842 309.6015625 190.05859375 C308.0078125 187.6796875 308.0078125 187.6796875 306.0078125 181.6796875 C284.5578125 181.6796875 263.1078125 181.6796875 241.0078125 181.6796875 C241.05421875 187.41085937 241.100625 193.14203125 241.1484375 199.046875 C241.16889237 202.69272662 241.18814928 206.33850679 241.203125 209.984375 C241.2269723 215.76252055 241.25508568 221.54041089 241.30957031 227.31835938 C241.35325293 231.98032542 241.3769967 236.6420175 241.38732147 241.30417252 C241.39467281 243.07666456 241.4090277 244.84914279 241.43073273 246.62151718 C241.57039631 258.5062123 241.34328917 268.93310574 232.78515625 278.14453125 C222.34670514 287.16060001 213.28181113 285.6796875 199.0078125 285.6796875 C199.0078125 299.2096875 199.0078125 312.7396875 199.0078125 326.6796875 C217.1578125 326.6796875 235.3078125 326.6796875 254.0078125 326.6796875 C254.6678125 324.6996875 255.3278125 322.7196875 256.0078125 320.6796875 C260.86535241 313.61417491 267.74692255 308.9610682 276.0078125 306.6796875 C286.19251641 305.42313312 295.03527469 307.29453515 303.359375 313.40625 C309.56938586 319.05805764 313.39483935 325.81929866 314.44921875 334.1796875 C314.69562432 341.55595745 313.92091876 347.38469047 310.0078125 353.6796875 C309.57210938 354.38867188 309.13640625 355.09765625 308.6875 355.828125 C303.98563658 362.73960729 298.01334166 366.44718735 290.0078125 368.6796875 C279.15340737 369.64928053 270.74755993 368.51948984 262.0078125 361.6796875 C258.02723961 357.68938216 255.49636467 353.74623695 253.0078125 348.6796875 C252.16700638 348.67604187 251.32620026 348.67239624 250.45991516 348.66864014 C242.52923534 348.63074571 234.59896615 348.57387673 226.66857624 348.49578476 C222.59161603 348.45630504 218.51487195 348.4241192 214.43774414 348.40869141 C210.50173487 348.39352774 206.56631978 348.35908832 202.63057518 348.31137848 C201.13036455 348.29656151 199.6300691 348.2886463 198.12978554 348.28780365 C196.02509122 348.28543298 193.9220377 348.2583504 191.81762695 348.22558594 C190.62071732 348.21670349 189.42380768 348.20782104 188.19062805 348.19866943 C184.39416254 347.57962727 182.7307235 346.34397667 180.0078125 343.6796875 C178.71117328 341.08640907 178.88777681 339.21560682 178.89428711 336.31201172 C178.89440796 335.17530029 178.89452881 334.03858887 178.89465332 332.86743164 C178.89976929 331.66852295 178.90488525 330.46961426 178.91015625 329.234375 C178.91116333 328.13552979 178.91217041 327.03668457 178.91320801 325.90454102 C178.91845194 321.78791261 178.93241313 317.67129904 178.9453125 313.5546875 C178.9659375 304.3559375 178.9865625 295.1571875 179.0078125 285.6796875 C151.2878125 285.6796875 123.5678125 285.6796875 95.0078125 285.6796875 C95.12644534 303.22609134 95.12644534 303.22609134 95.27807617 320.7722168 C95.28683928 322.97444218 95.29448364 325.17667243 95.30078125 327.37890625 C95.31612915 328.51928345 95.33147705 329.65966064 95.34729004 330.83459473 C95.34783386 332.47820984 95.34783386 332.47820984 95.34838867 334.1550293 C95.35838142 335.57733101 95.35838142 335.57733101 95.36857605 337.02836609 C94.81818054 341.07332958 93.07982392 343.55781797 90.29620361 346.47090149 C87.0427772 348.18944353 83.98205552 348.07439825 80.39355469 348.02026367 C79.25151077 348.02092079 79.25151077 348.02092079 78.08639526 348.02159119 C75.57556308 348.01950496 73.06540271 347.99618233 70.5546875 347.97265625 C68.81162887 347.96705969 67.06856552 347.96278987 65.32550049 347.95979309 C60.74197315 347.94834901 56.15873185 347.91888563 51.57531738 347.88568115 C46.89660512 347.85497083 42.21784655 347.8412857 37.5390625 347.82617188 C28.36185362 347.79401549 19.18485687 347.74282442 10.0078125 347.6796875 C9.71140869 348.62062256 9.41500488 349.56155762 9.10961914 350.53100586 C6.4593043 358.10492798 0.10081241 363.16271497 -6.81640625 366.8046875 C-14.13440449 369.74765268 -23.44333085 370.1085494 -30.7421875 367.0546875 C-40.19635019 362.15633509 -46.65975154 355.98258995 -49.9921875 345.6796875 C-51.06738283 334.50897391 -50.53186646 325.80815764 -43.453125 316.69921875 C-38.15400491 310.8099123 -32.05685419 307.15011593 -24.14453125 306.234375 C-14.33995198 305.77940342 -6.04060836 307.28204426 1.8203125 313.4296875 C5.28864903 316.65145982 7.93042544 320.42918125 10.0078125 324.6796875 C10.0078125 325.3396875 10.0078125 325.9996875 10.0078125 326.6796875 C31.1278125 326.6796875 52.2478125 326.6796875 74.0078125 326.6796875 C74.0078125 313.1496875 74.0078125 299.6196875 74.0078125 285.6796875 C67.7378125 285.6796875 61.4678125 285.6796875 55.0078125 285.6796875 C46.85417408 282.61272259 39.94478009 279.09320918 36.19189453 270.89794922 C35.4456391 269.16627068 34.72493004 267.42363422 34.0078125 265.6796875 C33.22132324 265.68605225 32.43483398 265.69241699 31.62451172 265.69897461 C28.04299021 265.70768685 24.46403505 265.66295977 20.8828125 265.6171875 C19.6453125 265.62814453 18.4078125 265.63910156 17.1328125 265.65039062 C8.16845901 265.48170655 8.16845901 265.48170655 4.8215332 263.16894531 C2.27313419 260.30034248 1.13064093 258.36206764 0.4453125 254.5546875 C1.08034788 251.30895112 2.02713653 249.3205888 4.0078125 246.6796875 C12.07007025 241.304849 23.3181846 244.6796875 33.0078125 244.6796875 C33.0078125 223.8896875 33.0078125 203.0996875 33.0078125 181.6796875 C11.5578125 181.6796875 -9.8921875 181.6796875 -31.9921875 181.6796875 C-32.6521875 183.6596875 -33.3121875 185.6396875 -33.9921875 187.6796875 C-38.23051776 194.40170401 -44.47936064 199.18753912 -51.9921875 201.6796875 C-62.27354826 203.01359658 -71.42581538 202.06114288 -80.19921875 196.20703125 C-86.42463468 191.32140798 -89.52465113 185.0822966 -91.9921875 177.6796875 C-93.1619882 166.559177 -91.19465125 158.38589369 -84.31640625 149.51953125 C-77.97452976 142.65280981 -70.55199622 139.81487472 -61.3671875 139.3671875 C-52.48361252 139.49938356 -45.1083272 142.6951094 -38.71875 148.80859375 C-31.9921875 156.09823954 -31.9921875 156.09823954 -31.9921875 160.6796875 C-10.5421875 160.6796875 10.9078125 160.6796875 33.0078125 160.6796875 C32.77111825 141.14450984 32.77111825 141.14450984 32.46728516 121.61035156 C32.44974105 119.13868779 32.43445658 116.66700651 32.421875 114.1953125 C32.3911792 112.93960449 32.3604834 111.68389648 32.32885742 110.39013672 C32.32330083 100.91058592 34.39915725 92.97287489 40.74868774 85.68023682 C42.40354522 84.10021892 44.07386021 82.89900606 46.0078125 81.6796875 C46.59433594 81.26976562 47.18085938 80.85984375 47.78515625 80.4375 C56.1884466 75.61184812 63.82938679 77.6796875 74.0078125 77.6796875 C74.0078125 63.8196875 74.0078125 49.9596875 74.0078125 35.6796875 C52.8878125 35.6796875 31.7678125 35.6796875 10.0078125 35.6796875 C9.0178125 38.6496875 9.0178125 38.6496875 8.0078125 41.6796875 C3.02569032 49.11623752 -3.4339949 53.63437592 -11.93359375 56.28515625 C-21.56738904 58.13148134 -28.96630381 56.36944961 -37.1484375 51.359375 C-43.59493365 46.95747651 -47.59430645 41.09322367 -49.9921875 33.6796875 C-51.06160294 22.56902391 -50.64386275 13.6066814 -43.34765625 4.6640625 C-32.00097196 -7.52786012 -13.8871785 -9.20365948 0 0 Z " fill="#66212F" transform="translate(351.9921875,314.3203125)"/>
<path d="M0 0 C0.96869506 -0.00935994 0.96869506 -0.00935994 1.95695972 -0.01890898 C4.11905839 -0.0348531 6.28003182 -0.02223062 8.44213867 -0.00964355 C9.99287575 -0.0150641 11.54360767 -0.02218638 13.09432983 -0.03088379 C17.30509934 -0.04912834 21.5154771 -0.04204509 25.72625351 -0.02936745 C30.13131522 -0.01924558 34.53634323 -0.02863086 38.94140625 -0.03491211 C46.33917264 -0.0421909 53.73677934 -0.03259478 61.13452148 -0.0135498 C69.68929625 0.00821944 78.24368971 0.00116823 86.79845524 -0.02085543 C94.141246 -0.03900287 101.48392193 -0.04157098 108.82672787 -0.03110075 C113.21321298 -0.02486219 117.59951881 -0.02404008 121.98599243 -0.0372467 C126.10981739 -0.04879512 130.23315038 -0.04079834 134.35692215 -0.01766968 C135.87104093 -0.01237713 137.38520106 -0.01390574 138.89930344 -0.02272034 C140.96516754 -0.03363897 143.02945167 -0.01996028 145.09521484 0 C146.25147873 0.0015081 147.40774261 0.0030162 148.5990448 0.00457001 C151.54760742 0.50793457 151.54760742 0.50793457 153.91913605 2.13640594 C156.05512362 5.24702597 156.05063503 7.19814976 156.05554199 10.96032715 C156.06178195 11.60612386 156.06802192 12.25192057 156.07445097 12.91728687 C156.09039509 15.07938554 156.07777261 17.24035897 156.06518555 19.40246582 C156.07060609 20.9532029 156.07772837 22.50393482 156.08642578 24.05465698 C156.10467034 28.26542649 156.09758708 32.47580425 156.08490944 36.68658066 C156.07478758 41.09164237 156.08417285 45.49667038 156.0904541 49.9017334 C156.09773289 57.29949979 156.08813677 64.69710648 156.0690918 72.09484863 C156.04732255 80.6496234 156.05437377 89.20401686 156.07639742 97.75878239 C156.09454486 105.10157315 156.09711297 112.44424907 156.08664274 119.78705502 C156.08040418 124.17354013 156.07958207 128.55984596 156.0927887 132.94631958 C156.10433711 137.07014454 156.09634033 141.19347753 156.07321167 145.3172493 C156.06791912 146.83136808 156.06944773 148.34552821 156.07826233 149.85963058 C156.08918096 151.92549469 156.07550227 153.98977881 156.05554199 156.05554199 C156.05403389 157.21180588 156.05252579 158.36806976 156.05097198 159.55937195 C155.54760742 162.50793457 155.54760742 162.50793457 153.91913605 164.8794632 C150.80851603 167.01545076 148.85739223 167.01096217 145.09521484 167.01586914 C144.44941813 167.0221091 143.80362143 167.02834907 143.13825512 167.03477812 C140.97615645 167.05072224 138.81518302 167.03809976 136.65307617 167.0255127 C135.1023391 167.03093324 133.55160717 167.03805552 132.00088501 167.04675293 C127.7901155 167.06499748 123.57973775 167.05791423 119.36896133 167.04523659 C114.96389962 167.03511472 110.55887161 167.0445 106.15380859 167.05078125 C98.7560422 167.05806004 91.35843551 167.04846392 83.96069336 167.02941895 C75.40591859 167.0076497 66.85152513 167.01470091 58.29675961 167.03672457 C50.95396884 167.05487201 43.61129292 167.05744012 36.26848698 167.04696989 C31.88200187 167.04073133 27.49569603 167.03990922 23.10922241 167.05311584 C18.98539746 167.06466426 14.86206446 167.05666748 10.73829269 167.03353882 C9.22417391 167.02824627 7.71001378 167.02977488 6.19591141 167.03858948 C4.1300473 167.04950811 2.06576318 167.03582942 0 167.01586914 C-1.15626389 167.01436104 -2.31252777 167.01285294 -3.50382996 167.01129913 C-6.45239258 166.50793457 -6.45239258 166.50793457 -8.8239212 164.8794632 C-10.95990877 161.76884317 -10.95542018 159.81771938 -10.96032715 156.05554199 C-10.96656711 155.40974528 -10.97280707 154.76394857 -10.97923613 154.09858227 C-10.99518025 151.9364836 -10.98255776 149.77551017 -10.9699707 147.61340332 C-10.97539125 146.06266624 -10.98251353 144.51193432 -10.99121094 142.96121216 C-11.00945549 138.75044265 -11.00237224 134.54006489 -10.9896946 130.32928848 C-10.97957273 125.92422677 -10.98895801 121.51919876 -10.99523926 117.11413574 C-11.00251805 109.71636935 -10.99292193 102.31876266 -10.97387695 94.92102051 C-10.95210771 86.36624574 -10.95915892 77.81185228 -10.98118258 69.25708675 C-10.99933002 61.91429599 -11.00189813 54.57162007 -10.9914279 47.22881413 C-10.98518934 42.84232902 -10.98436723 38.45602318 -10.99757385 34.06954956 C-11.00912227 29.9457246 -11.00112549 25.82239161 -10.97799683 21.69861984 C-10.97270428 20.18450106 -10.97423289 18.67034093 -10.98304749 17.15623856 C-10.99396612 15.09037445 -10.98028743 13.02609033 -10.96032715 10.96032715 C-10.95881905 9.80406326 -10.95731094 8.64779938 -10.95575714 7.45649719 C-10.45239258 4.50793457 -10.45239258 4.50793457 -8.8239212 2.13640594 C-5.71330118 0.00041838 -3.76217739 0.00490697 0 0 Z " fill="#EDEEF0" transform="translate(416.452392578125,412.4920654296875)"/>
<path d="M0 0 C85.25519941 0 85.25519941 0 97.5 6.75 C98.16306152 7.09925537 98.82612305 7.44851074 99.50927734 7.80834961 C104.62040609 10.58794277 109.00575609 13.7420774 113 18 C113.80630859 18.81210937 113.80630859 18.81210937 114.62890625 19.640625 C124.46445554 30.19103877 127.75984367 43.93015494 127.28125 58.0078125 C126.5542705 70.63908123 122.2116617 83.99304189 113 93 C106.723182 98.03149731 100.15283153 102.32644702 93 106 C93.64324219 106.86238281 94.28648437 107.72476563 94.94921875 108.61328125 C100.83381588 116.5470482 106.5145042 124.59544968 112.06201172 132.76831055 C116.42182559 139.18421004 120.87751402 145.52716343 125.39428711 151.83349609 C129 156.89459692 129 156.89459692 129 158 C125.14714438 158.26303192 121.29660407 158.42172203 117.4375 158.5625 C116.35146484 158.63791016 115.26542969 158.71332031 114.14648438 158.79101562 C106.25968381 159.00676397 106.25968381 159.00676397 102.93530273 156.34985352 C101.07723045 153.99457656 99.54294054 151.5721922 98 149 C96.73232379 147.18721142 95.45460953 145.38140918 94.16796875 143.58203125 C92.83869026 141.66055061 91.51193117 139.73732498 90.1875 137.8125 C85.12078595 130.4764673 80.04041186 123.15763228 74.74291992 115.9855957 C72 112.21595275 72 112.21595275 72 110 C55.5 110 39 110 22 110 C22 125.84 22 141.68 22 158 C14.74 158 7.48 158 0 158 C0 105.86 0 53.72 0 0 Z " fill="#65202D" transform="translate(813,469)"/>
<path d="M0 0 C42.9 0 85.8 0 130 0 C130 6.6 130 13.2 130 20 C112.18 20 94.36 20 76 20 C76 65.54 76 111.08 76 158 C68.74 158 61.48 158 54 158 C54 112.46 54 66.92 54 20 C36.18 20 18.36 20 0 20 C0 13.4 0 6.8 0 0 Z " fill="#64202E" transform="translate(954,468)"/>
<path d="M0 0 C11.8490625 -0.061875 11.8490625 -0.061875 23.9375 -0.125 C26.4137085 -0.14320801 28.88991699 -0.16141602 31.44116211 -0.18017578 C33.42822046 -0.18602309 35.41528122 -0.19111808 37.40234375 -0.1953125 C38.4142981 -0.20554443 39.42625244 -0.21577637 40.46887207 -0.22631836 C52.72597989 -0.22929954 65.03839739 2.32209432 74.2421875 10.9296875 C82.18871519 20.28893122 82.95035018 31.27992212 82 43 C80.2796873 52.11656157 75.36298581 59.2757043 67.75 64.5625 C53.65355231 72.35264214 37.67561706 71.37426607 22.125 71.1875 C14.82375 71.125625 7.5225 71.06375 0 71 C0 47.57 0 24.14 0 0 Z " fill="#EDEEF0" transform="translate(835,489)"/>
<path d="M0 0 C1.11306519 -0.00478363 2.22613037 -0.00956726 3.3729248 -0.01449585 C5.72307755 -0.01789393 8.07327762 -0.00869813 10.42333984 0.01220703 C14.01897662 0.03897114 17.61149148 0.01245316 21.20703125 -0.01953125 C23.49219439 -0.01622714 25.77735558 -0.00982089 28.0625 0 C29.13657104 -0.01012115 30.21064209 -0.02024231 31.31726074 -0.03067017 C39.6133535 0.09949169 39.6133535 0.09949169 42.68554688 3.14306641 C43.29462891 3.97499512 43.90371094 4.80692383 44.53125 5.6640625 C45.02625 6.1590625 45.02625 6.1590625 45.53125 6.6640625 C45.64070212 8.44235023 45.68033895 10.22497962 45.69238281 12.0065918 C45.70199036 13.14835373 45.7115979 14.29011566 45.72149658 15.46647644 C45.72574646 16.71117203 45.72999634 17.95586761 45.734375 19.23828125 C45.74007507 20.51000687 45.74577515 21.78173248 45.75164795 23.09199524 C45.76111794 25.79142844 45.76800387 28.49074994 45.77148438 31.19018555 C45.77695091 34.63906585 45.80093341 38.08754769 45.82945633 41.53630352 C45.85264395 44.83276576 45.85453762 48.12924889 45.859375 51.42578125 C45.8717218 52.66035568 45.8840686 53.89493011 45.89678955 55.16691589 C45.86853601 66.06429703 45.86853601 66.06429703 42.53125 70.6640625 C38.52423306 73.33540713 35.24248704 73.49059531 30.53125 72.6640625 C27.24949682 70.13437776 25.83881223 68.58674919 24.53125 64.6640625 C24.44494074 63.20624528 24.41354019 61.74478776 24.41772461 60.28442383 C24.41780014 59.40373734 24.41787567 58.52305084 24.41795349 57.61567688 C24.42311478 56.66871445 24.42827606 55.72175201 24.43359375 54.74609375 C24.4350087 53.77371262 24.43642365 52.80133148 24.43788147 51.79948425 C24.44348183 48.69181246 24.45603438 45.58421254 24.46875 42.4765625 C24.47376495 40.37044375 24.47832787 38.26432387 24.48242188 36.15820312 C24.49345138 30.99346186 24.51071625 25.82877437 24.53125 20.6640625 C23.49718018 20.68500977 22.46311035 20.70595703 21.39770508 20.72753906 C17.54937672 20.80011538 13.70110846 20.84592567 9.85229492 20.88378906 C8.18877987 20.90386457 6.52533504 20.93113126 4.86206055 20.96582031 C2.4664576 21.01452016 0.07179008 21.03707106 -2.32421875 21.0546875 C-3.43388252 21.08565521 -3.43388252 21.08565521 -4.56596375 21.11724854 C-8.257635 21.11884109 -10.281667 20.78466121 -13.4152832 18.76464844 C-16.19084601 15.92539718 -16.67430416 14.22926528 -16.84375 10.3515625 C-16.89273437 9.59230469 -16.94171875 8.83304687 -16.9921875 8.05078125 C-15.07669534 -0.68329121 -7.19984771 -0.06784539 0 0 Z " fill="#641F2E" transform="translate(443.46875,433.3359375)"/>
<path d="M0 0 C2.90821095 1.57724924 4.19968536 2.3291263 6 5 C6.90734633 9.5429689 6.79237115 14.03733878 6.7265625 18.65625 C6.72552421 20.00476072 6.72656383 21.35327449 6.72958374 22.70178223 C6.72940467 25.523167 6.70862982 28.34340427 6.67236328 31.16455078 C6.62698533 34.7729121 6.62590294 38.37959865 6.63939857 41.98816681 C6.64609598 44.77132946 6.63278546 47.55411331 6.61314011 50.33720398 C6.60174634 52.31188833 6.6043019 54.28663728 6.60708618 56.26135254 C6.58802216 57.46610229 6.56895813 58.67085205 6.54931641 59.91210938 C6.54010162 60.96958374 6.53088684 62.02705811 6.52139282 63.11657715 C5.86414836 66.751291 4.577067 68.38938991 2 71 C-0.89104444 72.90563164 -3.15145891 73.25743522 -6.58154297 73.29052734 C-7.93347244 73.3096669 -7.93347244 73.3096669 -9.31271362 73.32919312 C-10.27944 73.33141876 -11.24616638 73.33364441 -12.2421875 73.3359375 C-13.74387985 73.3459227 -13.74387985 73.3459227 -15.27590942 73.35610962 C-17.39241704 73.36622817 -19.5089565 73.37092689 -21.62548828 73.37060547 C-24.85633177 73.37497475 -28.08580473 73.4112928 -31.31640625 73.44921875 C-33.37499534 73.4550879 -35.4335909 73.45905663 -37.4921875 73.4609375 C-38.45486542 73.47530853 -39.41754333 73.48967957 -40.40939331 73.50448608 C-46.2604158 73.46481747 -49.51707188 72.84675782 -54 69 C-56.5854056 65.59196534 -56.51061096 62.15783207 -56 58 C-53.5625 55.125 -53.5625 55.125 -51 53 C-50.505 52.505 -50.505 52.505 -50 52 C-47.3337397 51.91144839 -44.69352886 51.88475327 -42.02734375 51.90234375 C-41.22970108 51.9037587 -40.43205841 51.90517365 -39.61024475 51.90663147 C-37.05262565 51.91224684 -34.49509282 51.92480188 -31.9375 51.9375 C-30.20768355 51.94251302 -28.47786574 51.94707627 -26.74804688 51.95117188 C-22.49866447 51.96222125 -18.24934688 51.97949614 -14 52 C-14.00888245 51.43481155 -14.01776489 50.86962311 -14.0269165 50.28730774 C-14.11548897 44.39875412 -14.17577513 38.51039008 -14.21972656 32.62133789 C-14.23982767 30.42431958 -14.26711306 28.22735468 -14.30175781 26.03051758 C-14.35034093 22.87047134 -14.37298405 19.71113313 -14.390625 16.55078125 C-14.41127014 15.57039383 -14.43191528 14.59000641 -14.45318604 13.57991028 C-14.45462603 9.19222178 -14.43575222 6.71047776 -12.10058594 2.90307617 C-8.5388704 -0.32374538 -4.67732086 -1.08062241 0 0 Z " fill="#66212E" transform="translate(545,486)"/>
<path d="M0 0 C0.8452977 0.00278961 1.6905954 0.00557922 2.56150818 0.00845337 C4.34092368 0.02116869 6.12028975 0.05073203 7.89916992 0.09619141 C10.61670766 0.16395313 13.33052118 0.17818712 16.04882812 0.18359375 C17.78258927 0.20259491 19.51632039 0.22462772 21.25 0.25 C22.05844864 0.25647552 22.86689728 0.26295105 23.69984436 0.2696228 C28.27639766 0.4041249 31.34895428 0.83165426 35.05859375 3.7890625 C37.52000622 7.4811812 37.74509582 10.50261055 37.05859375 14.7890625 C34.89573315 18.34233349 32.92853758 20.3343347 29.05859375 21.7890625 C26.33895005 22.00473463 23.72414215 22.11690591 21.00390625 22.125 C20.22473846 22.1316568 19.44557068 22.1383136 18.64279175 22.14517212 C16.99707391 22.15527991 15.35131525 22.15998972 13.70556641 22.15966797 C11.19885052 22.16403592 8.69390397 22.20035767 6.1875 22.23828125 C4.5846414 22.24415106 2.98177449 22.24811935 1.37890625 22.25 C0.63496613 22.26437103 -0.108974 22.27874207 -0.87545776 22.29354858 C-6.04463398 22.24858387 -8.95333522 21.03491974 -12.94140625 17.7890625 C-14.64287613 15.4688763 -14.936262 13.8179989 -15.44140625 10.9765625 C-14.0770184 2.27858996 -8.00936196 -0.26536003 0 0 Z " fill="#662231" transform="translate(430.94140625,516.2109375)"/>
<path d="M0 0 C2.70567626 1.82339052 4.53728718 3.07457436 6 6 C6.3751455 10.97067782 6.15878799 14.05151502 3 18 C-0.42094119 20.56570589 -3.84773484 20.43708054 -8 20 C-11.37021602 17.9029767 -13.89129539 15.88046613 -15 12 C-14.9188061 7.5343354 -14.47785505 5.56362391 -11.5625 2.125 C-7.32413115 -1.3897449 -5.39006227 -1.18764084 0 0 Z " fill="#E9E9EC" transform="translate(337,642)"/>
<path d="M0 0 C2.70567626 1.82339052 4.53728718 3.07457436 6 6 C6.3751455 10.97067782 6.15878799 14.05151502 3 18 C-0.42094119 20.56570589 -3.84773484 20.43708054 -8 20 C-11.37021602 17.9029767 -13.89129539 15.88046613 -15 12 C-14.9188061 7.5343354 -14.47785505 5.56362391 -11.5625 2.125 C-7.32413115 -1.3897449 -5.39006227 -1.18764084 0 0 Z " fill="#E9E9EB" transform="translate(337,330)"/>
<path d="M0 0 C3.5386994 1.65139305 4.81070153 2.71605229 7 6 C7.54531842 9.06526351 7.54325893 11.93408329 7 15 C4.10799895 18.65305395 1.88959163 20.74232841 -2.75 21.375 C-7.2753858 20.8528401 -8.7671103 19.15770622 -12 16 C-13.60086627 12.79826746 -13.49917089 9.47422941 -13 6 C-9.33747506 0.26204426 -6.68906908 -0.45349621 0 0 Z " fill="#EAEAEC" transform="translate(294,475)"/>
<path d="M0 0 C5.53846154 3.07692308 5.53846154 3.07692308 7 6 C7.68128376 12.81283762 7.68128376 12.81283762 5.953125 15.82421875 C4.17156722 17.98828747 2.52390368 19.73804816 0 21 C-4.65408901 21.4136968 -7.25239476 20.81070393 -11 18 C-13.6790573 13.98141405 -13.69610694 10.72358279 -13 6 C-9.42276748 0.27642798 -6.63835245 -0.55319604 0 0 Z " fill="#EAEAEC" transform="translate(690,475)"/>
<path d="M0 0 C5.53846154 3.07692308 5.53846154 3.07692308 7 6 C7.57791538 13.0505676 7.57791538 13.0505676 5.25 16.875 C1.81484084 20.11931699 0.37347797 21.02497233 -4.4375 20.9375 C-8.82440811 19.7830505 -10.4274428 18.74190139 -13 15 C-13.96393453 10.33252754 -13.65953759 7.05526014 -11.125 3 C-7.48575824 -0.42516871 -4.95016076 -0.4125134 0 0 Z " fill="#EAEBED" transform="translate(638,642)"/>
<path d="M0 0 C2.70567626 1.82339052 4.53728718 3.07457436 6 6 C6.3751455 10.97067782 6.15878799 14.05151502 3 18 C-0.42094119 20.56570589 -3.84773484 20.43708054 -8 20 C-10.75329021 18.20437595 -12.52627461 16.94745078 -14 14 C-14.42071592 10.94079426 -14.48514117 8.0532254 -14 5 C-9.54542867 -0.62682695 -6.93538616 -1.52813593 0 0 Z " fill="#EAEBED" transform="translate(639,330)"/>
<path d="M0 0 C2.97 0 5.94 0 9 0 C9 0.66 9 1.32 9 2 C6.36 2.33 3.72 2.66 1 3 C1 7.95 1 12.9 1 18 C18.16 18 35.32 18 53 18 C53 18.33 53 18.66 53 19 C35.51 19 18.02 19 0 19 C0 12.73 0 6.46 0 0 Z " fill="#541F2B" transform="translate(954,469)"/>
<path d="M0 0 C0.66 0.33 1.32 0.66 2 1 C1.030625 1.86625 0.06125 2.7325 -0.9375 3.625 C-3.91504038 6.56751049 -4.79692286 8.73538008 -5 13 C-5.33 13 -5.66 13 -6 13 C-6.3125 9.8125 -6.3125 9.8125 -6 6 C-3.5625 3.125 -3.5625 3.125 -1 1 C-0.67 0.67 -0.34 0.34 0 0 Z " fill="#703D49" transform="translate(495,538)"/>
</svg>
