<?xml version="1.0" encoding="UTF-8"?>
<svg version="1.1" xmlns="http://www.w3.org/2000/svg" width="698" height="510">
<path d="M0 0 C230.34 0 460.68 0 698 0 C698 168.3 698 336.6 698 510 C467.66 510 237.32 510 0 510 C0 341.7 0 173.4 0 0 Z " fill="#000000" transform="translate(0,0)"/>
<path d="M0 0 C0.33 0 0.66 0 1 0 C1.29132813 1.20011719 1.58265625 2.40023437 1.8828125 3.63671875 C4.0700246 12.55945732 6.36362932 21.43048443 8.9375 30.25 C11.13648841 37.79392846 13.12860229 45.3683399 15 53 C17.0898916 61.51722968 19.36308022 69.95646658 21.80712891 78.37841797 C23.56441599 84.44321567 25.25374369 90.52237408 26.875 96.625 C27.090354 97.42526611 27.30570801 98.22553223 27.52758789 99.05004883 C28.33394049 102.11218534 29 104.81908241 29 108 C70.69822189 106.81385689 70.69822189 106.81385689 112.375 105.0625 C132.97269176 104.03797599 153.57871902 103.2613915 174.1875 102.5 C175.06471584 102.46756447 175.94193169 102.43512894 176.84572983 102.40171051 C202.42340185 101.45735045 228.00264925 100.59733791 253.58587646 99.81887817 C271.30970866 99.27938406 289.03196978 98.71071119 306.75234985 98.06668091 C309.08904377 97.9818934 311.42577402 97.8981 313.76254272 97.81539917 C316.96291309 97.7016959 320.16310692 97.58392239 323.36328125 97.46484375 C324.74466782 97.41650391 324.74466782 97.41650391 326.15396118 97.3671875 C331.63528696 97.15707222 337.07149393 96.74908552 342.53166199 96.22636414 C345.45731819 95.95806067 348.37690898 95.79655839 351.3125 95.68359375 C352.39942139 95.64161865 353.48634277 95.59964355 354.60620117 95.55639648 C355.72615479 95.51716064 356.8461084 95.4779248 358 95.4375 C359.16958252 95.3950415 360.33916504 95.35258301 361.54418945 95.30883789 C371.36615136 94.97492209 381.17372136 94.89228196 391 95 C388.93135118 97.06864882 387.8348418 97.57535356 385.14086914 98.53369141 C384.33725952 98.8228392 383.5336499 99.111987 382.70568848 99.40989685 C381.38377502 99.87602135 381.38377502 99.87602135 380.03515625 100.3515625 C379.11093872 100.68281631 378.18672119 101.01407013 377.23449707 101.35536194 C375.22936771 102.0736031 373.22335747 102.78938872 371.21658325 103.50302124 C365.86918965 105.40521011 360.52857326 107.32624456 355.1875 109.24609375 C354.09248672 109.63926285 352.99747345 110.03243195 351.86927795 110.43751526 C340.73715248 114.4408717 329.6454457 118.55025915 318.5625 122.6875 C317.24694626 123.17817963 317.24694626 123.17817963 315.90481567 123.67877197 C311.94175741 125.1571968 307.97927097 126.6371406 304.01782227 128.11987305 C302.93172369 128.51494505 302.93172369 128.51494505 301.82368374 128.91799831 C299.74221686 129.71559141 297.68495243 130.57704414 295.64376926 131.47271729 C285.22363416 135.92697912 276.20925874 136.83147703 264.97216797 136.6652832 C263.21824595 136.66197287 261.46431716 136.66135462 259.71039295 136.66317368 C254.96454644 136.66071645 250.21964869 136.62141707 245.47405028 136.5755837 C240.40348814 136.53340793 235.33287032 136.52672247 230.26216125 136.51622009 C221.61287949 136.49396137 212.96390932 136.45129782 204.31478882 136.39440918 C190.86266518 136.30660247 177.41060706 136.26457235 163.95825195 136.23144531 C159.47358664 136.21996782 154.98892189 136.20828159 150.5042572 136.19656372 C149.39748235 136.19371325 148.2907075 136.19086278 147.15039402 136.18792593 C139.34325133 136.16738625 131.53613708 136.14160872 123.72901917 136.11325073 C90.03407009 135.99202372 56.34175016 135.96784917 22.64727783 136.20248413 C16.49432328 136.24463554 10.3414942 136.26574109 4.18842411 136.28173923 C-0.29024039 136.29758479 -4.76864838 136.33023805 -9.2471714 136.36862373 C-11.26377589 136.38300619 -13.28043873 136.3910002 -15.29709435 136.39179802 C-17.99391 136.39415033 -20.68940021 136.42086293 -23.38598633 136.45410156 C-24.53437579 136.44655838 -24.53437579 136.44655838 -25.70596504 136.4388628 C-30.65379823 136.53463267 -33.99518226 137.67504324 -38.25986767 140.19912338 C-40 141 -40 141 -43 140.4375 C-45.06859479 139.44629833 -47.13349788 138.44736782 -49.1953125 137.44213867 C-55.79355081 135.01267317 -62.93747734 135.51704884 -69.875 135.48828125 C-71.41057757 135.47141366 -72.9461415 135.45326065 -74.48168945 135.43388367 C-78.49944803 135.38660291 -82.51715131 135.35665245 -86.53509521 135.33044434 C-91.36867353 135.29525622 -96.20203963 135.23830654 -101.03544617 135.18505096 C-108.35693627 135.10679434 -115.67815349 135.05599513 -123 135 C-123 153.15 -123 171.3 -123 190 C-126.89409353 188.05295323 -129.81755285 185.7595275 -133.0625 182.9375 C-134.22981968 181.93544131 -135.39779826 180.93414971 -136.56640625 179.93359375 C-137.14664551 179.43585449 -137.72688477 178.93811523 -138.32470703 178.42529297 C-140.6879124 176.41474314 -143.09143529 174.45585357 -145.5 172.5 C-150.1045358 168.75212202 -154.64019191 164.93016556 -159.1640625 161.0859375 C-162.5805954 158.18755177 -166.02504838 155.328449 -169.5 152.5 C-174.09598978 148.75907809 -178.6257637 144.94704286 -183.13769531 141.10571289 C-187.67866769 137.2477932 -192.29815061 133.49728716 -196.953125 129.77734375 C-199 128 -199 128 -200 126 C-182.36708173 124.38718378 -164.73353194 122.78154133 -147.09895325 121.1869812 C-139.1428375 120.4673539 -131.18722971 119.74265935 -123.2322998 119.01000977 C-119.08427074 118.62942814 -114.93569914 118.25506792 -110.78692627 117.88269043 C-108.9170118 117.71358303 -107.04733025 117.54187575 -105.17791748 117.36730957 C-93.7476542 116.30173452 -82.4805837 115.78266673 -71 116 C-70.72849121 115.27506348 -70.45698242 114.55012695 -70.17724609 113.80322266 C-69.02896254 111.06896472 -67.71066384 108.67556714 -66.1640625 106.1484375 C-65.60090332 105.22506592 -65.03774414 104.30169434 -64.45751953 103.3503418 C-63.85278809 102.368479 -63.24805664 101.38661621 -62.625 100.375 C-61.99577637 99.34737549 -61.36655273 98.31975098 -60.71826172 97.26098633 C-56.42840117 90.27252558 -52.07338977 83.32735272 -47.67553711 76.40649414 C-43.45054988 69.74648726 -39.31317293 63.03439079 -35.1875 56.3125 C-28.10933886 44.78366413 -20.97029291 33.29459029 -13.77832031 21.83642578 C-11.99122934 18.98601077 -10.21015827 16.13189752 -8.4296875 13.27734375 C-7.32834684 11.51809027 -6.22679544 9.7589687 -5.125 8 C-4.6187207 7.1860376 -4.11244141 6.3720752 -3.59082031 5.53344727 C-2.42098449 3.67165642 -1.21469 1.83284185 0 0 Z " fill="#FBFBFB" transform="translate(279,54)"/>
<path d="M0 0 C0.33 0 0.66 0 1 0 C1 8.91 1 17.82 1 27 C63.04 27 125.08 27 189 27 C193.49973202 38.24933005 193.49973202 38.24933005 195.43847656 43.9206543 C195.65054245 44.53865906 195.86260834 45.15666382 196.08110046 45.793396 C196.77000202 47.80285997 197.45532048 49.81352554 198.140625 51.82421875 C198.63116869 53.25706563 199.12195772 54.68982853 199.61297607 56.12251282 C200.90096841 59.88247106 202.18600024 63.64343398 203.47027588 67.40466309 C205.00343842 71.89337897 206.53943091 76.38112712 208.07593536 80.86870003 C209.31996074 84.50212256 210.56268072 88.13597718 211.80212402 91.77096558 C214.01369407 98.2505077 216.24506216 104.72034733 218.55273438 111.16650391 C219.12637726 112.77728569 219.12637726 112.77728569 219.71160889 114.42060852 C220.41372247 116.38502409 221.12324092 118.34681549 221.84161377 120.30534363 C222.14492615 121.15566666 222.44823853 122.00598969 222.76074219 122.88208008 C223.02634949 123.6115535 223.29195679 124.34102692 223.56561279 125.09260559 C224 127 224 127 223 130 C222.54898926 129.64397705 222.09797852 129.2879541 221.63330078 128.92114258 C212.5484121 121.76470406 203.38700764 114.76455586 193.97412109 108.04492188 C187.97743827 103.74732079 182.10362356 99.3025341 176.25 94.8125 C170.03710883 90.04762547 163.79309477 85.36575 157.38574219 80.86645508 C151.03971018 76.37831967 144.90600766 71.61111195 138.73828125 66.8828125 C133.88235675 63.16904629 129.003182 59.51275962 124 56 C117.03385075 51.0944961 110.28502933 45.9177869 103.54492188 40.70703125 C101.04481041 38.78386859 98.52917895 36.88474155 96 35 C95.18740723 34.38833984 94.37481445 33.77667969 93.53759766 33.14648438 C92.75819824 32.58767578 91.97879883 32.02886719 91.17578125 31.453125 C90.49040283 30.95458008 89.80502441 30.45603516 89.09887695 29.94238281 C86.29765924 28.68465333 84.89541413 29.08345381 82 30 C79.89993554 30.95433584 79.89993554 30.95433584 77.8671875 32.1953125 C77.07521973 32.65607178 76.28325195 33.11683105 75.46728516 33.59155273 C74.61183105 34.09759033 73.75637695 34.60362793 72.875 35.125 C70.98531767 36.22427832 69.09464324 37.32185248 67.203125 38.41796875 C66.19830078 39.0011084 65.19347656 39.58424805 64.15820312 40.18505859 C58.68209859 43.33204075 53.15223136 46.38150294 47.625 49.4375 C38.24539633 54.63261147 28.89149233 59.86974558 19.56298828 65.15600586 C12.55432468 69.12620694 5.53043138 73.06848737 -1.5 77 C-9.67241563 81.57312909 -17.8426481 86.15004073 -26 90.75 C-26.94125732 91.28069092 -27.88251465 91.81138184 -28.85229492 92.3581543 C-35.60799676 96.18056061 -42.30984897 100.08829333 -48.95117188 104.10644531 C-53.78591061 107 -53.78591061 107 -56 107 C-54.70080231 102.77946464 -53.09150698 99.04334301 -50.98046875 95.16796875 C-50.3769458 94.05244629 -49.77342285 92.93692383 -49.15161133 91.78759766 C-48.83173248 91.20133606 -48.51185364 90.61507446 -48.18228149 90.01104736 C-46.47350069 86.87865824 -44.78033214 83.73784362 -43.0859375 80.59765625 C-42.74087662 79.95898621 -42.39581573 79.32031616 -42.04029846 78.66229248 C-38.7274132 72.51943279 -35.51268966 66.32723274 -32.3125 60.125 C-27.83825816 51.46818167 -23.24231763 42.88973951 -18.54296875 34.35327148 C-13.92096302 25.9274841 -9.4952576 17.40312339 -5.09960938 8.85742188 C-4.57818359 7.84615234 -4.05675781 6.83488281 -3.51953125 5.79296875 C-3.05651611 4.8908667 -2.59350098 3.98876465 -2.11645508 3.05932617 C-1 1 -1 1 0 0 Z " fill="#FCFCFC" transform="translate(155,291)"/>
<path d="M0 0 C8.91 0 17.82 0 27 0 C28.711875 3.568125 30.42375 7.13625 32.1875 10.8125 C32.71625732 11.91311768 33.24501465 13.01373535 33.78979492 14.14770508 C34.44105347 15.50738403 34.44105347 15.50738403 35.10546875 16.89453125 C35.75745239 18.25348511 35.75745239 18.25348511 36.42260742 19.63989258 C38.65994265 24.40578713 40.82135914 29.20699011 43 34 C43.33 22.78 43.66 11.56 44 0 C52.58 0 61.16 0 70 0 C70 31.68 70 63.36 70 96 C61.42 96 52.84 96 44 96 C42.494375 93.174375 40.98875 90.34875 39.4375 87.4375 C38.97915771 86.58212646 38.52081543 85.72675293 38.04858398 84.84545898 C34.0706581 77.33086585 30.61353052 69.74327968 27 62 C26.67 73.22 26.34 84.44 26 96 C17.42 96 8.84 96 0 96 C0 64.32 0 32.64 0 0 Z " fill="#FBFBFB" transform="translate(519,206)"/>
<path d="M0 0 C0.88731812 -0.0038269 1.77463623 -0.00765381 2.68884277 -0.01159668 C4.55803568 -0.01430911 6.42726698 -0.00699489 8.29638672 0.00976562 C11.14767564 0.03118559 13.99644513 0.00994199 16.84765625 -0.015625 C18.66927636 -0.0129816 20.49089491 -0.00785638 22.3125 0 C23.58305237 -0.01214539 23.58305237 -0.01214539 24.87927246 -0.02453613 C31.48743197 0.07947965 35.02893874 1.94130517 39.79449463 6.63908386 C42.24691371 10.44882361 42.18956877 13.70304582 42.11035156 18.08520508 C42.11093567 18.93449585 42.11151978 19.78378662 42.11212158 20.65881348 C42.10934236 23.45655673 42.07825842 26.2532249 42.046875 29.05078125 C42.03941203 30.99419065 42.03371936 32.9376076 42.02972412 34.88102722 C42.01447226 39.98905314 41.97519415 45.09662206 41.9309082 50.20446777 C41.88994593 55.41945209 41.87171105 60.63451045 41.8515625 65.84960938 C41.80869947 76.07705571 41.73835312 86.30404331 41.65625 96.53125 C33.07625 96.53125 24.49625 96.53125 15.65625 96.53125 C15.65625 90.59125 15.65625 84.65125 15.65625 78.53125 C12.68625 78.53125 9.71625 78.53125 6.65625 78.53125 C6.65625 84.47125 6.65625 90.41125 6.65625 96.53125 C-1.92375 96.53125 -10.50375 96.53125 -19.34375 96.53125 C-19.43416621 85.42188006 -19.50753249 74.31275502 -19.55099869 63.2031002 C-19.57186166 58.04427786 -19.60015597 52.88572058 -19.64550781 47.72705078 C-19.68901124 42.74739608 -19.71289681 37.76799614 -19.72325897 32.78816605 C-19.73064224 30.88956314 -19.74506014 28.99097398 -19.76667023 27.09247971 C-19.79576408 24.43032597 -19.79970352 21.76922107 -19.79785156 19.10693359 C-19.81223267 18.32434174 -19.82661377 17.54174988 -19.84143066 16.73544312 C-19.80245469 11.54778379 -18.73155276 8.66710027 -15.34375 4.53125 C-10.37595779 0.16759956 -6.30954964 -0.06031386 0 0 Z " fill="#FCFCFC" transform="translate(469.34375,205.46875)"/>
<path d="M0 0 C0.88731812 -0.0038269 1.77463623 -0.00765381 2.68884277 -0.01159668 C4.55803568 -0.01430911 6.42726698 -0.00699489 8.29638672 0.00976562 C11.14767564 0.03118559 13.99644513 0.00994199 16.84765625 -0.015625 C18.66927636 -0.0129816 20.49089491 -0.00785638 22.3125 0 C23.58305237 -0.01214539 23.58305237 -0.01214539 24.87927246 -0.02453613 C31.48743197 0.07947965 35.02893874 1.94130517 39.79449463 6.63908386 C42.24691371 10.44882361 42.18956877 13.70304582 42.11035156 18.08520508 C42.11093567 18.93449585 42.11151978 19.78378662 42.11212158 20.65881348 C42.10934236 23.45655673 42.07825842 26.2532249 42.046875 29.05078125 C42.03941203 30.99419065 42.03371936 32.9376076 42.02972412 34.88102722 C42.01447226 39.98905314 41.97519415 45.09662206 41.9309082 50.20446777 C41.88994593 55.41945209 41.87171105 60.63451045 41.8515625 65.84960938 C41.80869947 76.07705571 41.73835312 86.30404331 41.65625 96.53125 C33.07625 96.53125 24.49625 96.53125 15.65625 96.53125 C15.65625 90.59125 15.65625 84.65125 15.65625 78.53125 C12.68625 78.53125 9.71625 78.53125 6.65625 78.53125 C6.65625 84.47125 6.65625 90.41125 6.65625 96.53125 C-1.92375 96.53125 -10.50375 96.53125 -19.34375 96.53125 C-19.43416621 85.42188006 -19.50753249 74.31275502 -19.55099869 63.2031002 C-19.57186166 58.04427786 -19.60015597 52.88572058 -19.64550781 47.72705078 C-19.68901124 42.74739608 -19.71289681 37.76799614 -19.72325897 32.78816605 C-19.73064224 30.88956314 -19.74506014 28.99097398 -19.76667023 27.09247971 C-19.79576408 24.43032597 -19.79970352 21.76922107 -19.79785156 19.10693359 C-19.81223267 18.32434174 -19.82661377 17.54174988 -19.84143066 16.73544312 C-19.80245469 11.54778379 -18.73155276 8.66710027 -15.34375 4.53125 C-10.37595779 0.16759956 -6.30954964 -0.06031386 0 0 Z " fill="#FCFCFC" transform="translate(261.34375,205.46875)"/>
<path d="M0 0 C12.436875 -0.12375 12.436875 -0.12375 25.125 -0.25 C29.03690186 -0.30462402 29.03690186 -0.30462402 33.02783203 -0.36035156 C35.10448382 -0.37203855 37.18114479 -0.38223035 39.2578125 -0.390625 C40.86354126 -0.4213208 40.86354126 -0.4213208 42.50170898 -0.45263672 C50.12000031 -0.45619584 53.73777691 0.91989873 59.34399414 6.21313477 C61.57875175 9.97397187 61.55678953 13.34007847 61.49609375 17.58984375 C61.49754898 18.41198868 61.49900421 19.23413361 61.50050354 20.08119202 C61.49884805 21.81515048 61.4873259 23.54912417 61.46655273 25.28295898 C61.43763015 27.92560825 61.44594414 30.56624522 61.45898438 33.20898438 C61.45274517 34.89844718 61.4443528 36.58790368 61.43359375 38.27734375 C61.43652939 39.06189438 61.43946503 39.84644501 61.44248962 40.6547699 C61.36007707 45.49002156 60.61674762 48.78801586 58 53 C55.39070749 55.44621173 54.62968776 56 51 56 C51 56.66 51 57.32 51 58 C52.11375 58.0928125 52.11375 58.0928125 53.25 58.1875 C56.84889332 59.25080939 57.91859246 60.95222467 60 64 C61.46098845 66.9219769 61.11134901 69.49893475 61.09765625 72.7578125 C61.0962413 73.42086395 61.09482635 74.08391541 61.09336853 74.76705933 C61.08776754 76.88641863 61.075215 79.00567259 61.0625 81.125 C61.05748512 82.56119639 61.05292219 83.99739444 61.04882812 85.43359375 C61.03864833 88.95580248 61.01907338 92.47778321 61 96 C52.42 96 43.84 96 35 96 C35 87.42 35 78.84 35 70 C32.03 70 29.06 70 26 70 C26 78.58 26 87.16 26 96 C17.42 96 8.84 96 0 96 C0 64.32 0 32.64 0 0 Z " fill="#FBFBFB" transform="translate(172,206)"/>
<path d="M0 0 C8.91 0 17.82 0 27 0 C27 11.55 27 23.1 27 35 C29.64 35 32.28 35 35 35 C35 23.78 35 12.56 35 1 C43.58 1 52.16 1 61 1 C61.06903882 6.16001225 61.12872035 11.31840876 61.16479492 16.47851562 C61.17983995 18.23215173 61.20028104 19.98575047 61.22631836 21.73925781 C61.26289121 24.26637009 61.2797692 26.79298296 61.29296875 29.3203125 C61.30845261 30.09867462 61.32393646 30.87703674 61.33988953 31.6789856 C61.34137112 36.51959521 60.69804723 39.81714508 58 44 C54.8125 46.375 54.8125 46.375 52 48 C52.928125 48.556875 53.85625 49.11375 54.8125 49.6875 C58.15522127 52.11261151 59.32376602 53.29044426 61 57 C61.39475996 60.01320717 61.34976428 62.9850616 61.29296875 66.01953125 C61.28872391 66.87810226 61.28447906 67.73667328 61.28010559 68.6212616 C61.26336995 71.35199914 61.22572766 74.08198712 61.1875 76.8125 C61.17244653 78.6686091 61.15875928 80.52472982 61.14648438 82.38085938 C61.11604026 86.92109103 61.0573108 91.45971074 61 96 C52.42 96 43.84 96 35 96 C35 84.45 35 72.9 35 61 C32.03 61 29.06 61 26 61 C26 72.55 26 84.1 26 96 C17.42 96 8.84 96 0 96 C-0.09204469 90.69720317 -0.17161406 85.39719875 -0.21972656 80.09423828 C-0.23979033 78.29205919 -0.26704813 76.48994479 -0.30175781 74.68798828 C-0.35050829 72.09130864 -0.37302082 69.49549271 -0.390625 66.8984375 C-0.41127014 66.0982016 -0.43191528 65.2979657 -0.45318604 64.47348022 C-0.45529521 59.16547111 0.502596 56.2218549 4 52 C6.75 49.625 6.75 49.625 9 48 C8.071875 47.46375 7.14375 46.9275 6.1875 46.375 C2.57186723 43.68099911 1.61363414 42.16862954 0 38 C-0.38005067 35.02427445 -0.35093513 32.0973779 -0.29296875 29.1015625 C-0.28872391 28.26660248 -0.28447906 27.43164246 -0.28010559 26.57138062 C-0.26340333 23.92224965 -0.22576775 21.2738984 -0.1875 18.625 C-0.1724422 16.82162562 -0.15875571 15.01823924 -0.14648438 13.21484375 C-0.11608774 8.8093587 -0.05735281 4.40554513 0 0 Z " fill="#FBFBFB" transform="translate(311,206)"/>
<path d="M0 0 C19.8 0 39.6 0 60 0 C60 8.25 60 16.5 60 25 C54.39 25 48.78 25 43 25 C43 48.1 43 71.2 43 95 C34.42 95 25.84 95 17 95 C17 71.9 17 48.8 17 25 C11.39 25 5.78 25 0 25 C0 16.75 0 8.5 0 0 Z " fill="#FDFDFD" transform="translate(381,207)"/>
<path d="M0 0 C2.97 0 5.94 0 9 0 C9 8.91 9 17.82 9 27 C6.03 27 3.06 27 0 27 C0 18.09 0 9.18 0 0 Z " fill="#131313" transform="translate(476,232)"/>
<path d="M0 0 C2.97 0 5.94 0 9 0 C9 8.91 9 17.82 9 27 C6.03 27 3.06 27 0 27 C0 18.09 0 9.18 0 0 Z " fill="#131313" transform="translate(268,232)"/>
<path d="M0 0 C2.97 0 5.94 0 9 0 C9 5.94 9 11.88 9 18 C6.03 18 3.06 18 0 18 C0 12.06 0 6.12 0 0 Z " fill="#141414" transform="translate(198,232)"/>
</svg>
